<svg xmlns="http://www.w3.org/2000/svg" width="960" height="790" viewBox="0 0 960 790">
<rect width="960" height="790" fill="white"/>
<text x="60" y="26" font-family="sans-serif" font-size="18">quintic-mixed: quintic / C2 / simulation</text>
<text x="80" y="50" font-family="sans-serif" font-size="15">Position (rad)</text>
<path d="M80,235.000 H880" stroke="#e2e8f0"/><text x="8" y="239.000" font-size="12">-0.904</text>
<path d="M80,191.250 H880" stroke="#e2e8f0"/><text x="8" y="195.250" font-size="12">-0.377</text>
<path d="M80,147.500 H880" stroke="#e2e8f0"/><text x="8" y="151.500" font-size="12">0.15</text>
<path d="M80,103.750 H880" stroke="#e2e8f0"/><text x="8" y="107.750" font-size="12">0.677</text>
<path d="M80,60.000 H880" stroke="#e2e8f0"/><text x="8" y="64.000" font-size="12">1.2</text>
<polyline points="80.000,159.953 103.543,159.932 127.085,159.798 150.628,159.454 174.171,158.826 197.713,157.857 221.256,156.507 244.799,154.753 249.060,154.391 268.341,152.585 291.884,150.007 315.426,147.035 338.969,143.695 362.512,140.023 386.054,136.062 409.597,131.862 433.140,127.479 456.682,122.971 480.000,118.444 480.225,118.400 503.768,113.830 527.310,109.324 550.853,104.944 574.396,100.748 597.938,96.792 621.481,93.126 645.024,89.793 668.566,86.828 692.109,84.258 710.940,82.497 715.651,82.097 739.194,80.351 762.737,79.009 786.279,78.047 809.822,77.425 833.365,77.086 856.907,76.955 880.000,76.935" fill="none" stroke="#2563eb" stroke-width="1.7"/>
<polyline points="80.000,159.953 103.543,159.967 127.085,160.061 150.628,160.301 174.171,160.741 197.713,161.419 221.256,162.364 244.799,163.592 249.060,163.845 268.341,165.110 291.884,166.914 315.426,168.995 338.969,171.333 362.512,173.903 386.054,176.676 409.597,179.616 433.140,182.684 456.682,185.840 480.000,189.009 480.225,189.039 503.768,192.238 527.310,195.392 550.853,198.459 574.396,201.396 597.938,204.165 621.481,206.731 645.024,209.065 668.566,211.140 692.109,212.939 710.940,214.172 715.651,214.451 739.194,215.674 762.737,216.613 786.279,217.287 809.822,217.722 833.365,217.959 856.907,218.051 880.000,218.065" fill="none" stroke="#dc2626" stroke-width="1.7"/>
<polyline points="80.000,159.953 103.543,159.946 127.085,159.906 150.628,159.803 174.171,159.615 197.713,159.324 221.256,158.919 244.799,158.393 249.060,158.284 268.341,157.742 291.884,156.969 315.426,156.077 338.969,155.075 362.512,153.974 386.054,152.785 409.597,151.525 433.140,150.210 456.682,148.858 480.000,147.500 480.225,147.487 503.768,146.116 527.310,144.764 550.853,143.450 574.396,142.191 597.938,141.004 621.481,139.904 645.024,138.905 668.566,138.015 692.109,137.244 710.940,136.716 715.651,136.596 739.194,136.072 762.737,135.669 786.279,135.381 809.822,135.194 833.365,135.093 856.907,135.053 880.000,135.047" fill="none" stroke="#16a34a" stroke-width="1.7"/>
<polyline points="80.000,159.953 103.543,159.953 127.085,159.953 150.628,159.953 174.171,159.953 197.713,159.953 221.256,159.953 244.799,159.953 249.060,159.953 268.341,159.953 291.884,159.953 315.426,159.953 338.969,159.953 362.512,159.953 386.054,159.953 409.597,159.953 433.140,159.953 456.682,159.953 480.000,159.953 480.225,159.953 503.768,159.953 527.310,159.953 550.853,159.953 574.396,159.953 597.938,159.953 621.481,159.953 645.024,159.953 668.566,159.953 692.109,159.953 710.940,159.953 715.651,159.953 739.194,159.953 762.737,159.953 786.279,159.953 809.822,159.953 833.365,159.953 856.907,159.953 880.000,159.953" fill="none" stroke="#9333ea" stroke-width="1.7"/>
<polyline points="80.000,159.953 103.543,159.952 127.085,159.949 150.628,159.943 174.171,159.930 197.713,159.911 221.256,159.884 244.799,159.849 249.060,159.841 268.341,159.805 291.884,159.754 315.426,159.694 338.969,159.627 362.512,159.554 386.054,159.475 409.597,159.391 433.140,159.303 456.682,159.213 480.000,159.122 480.225,159.122 503.768,159.030 527.310,158.940 550.853,158.852 574.396,158.768 597.938,158.689 621.481,158.616 645.024,158.549 668.566,158.490 692.109,158.439 710.940,158.403 715.651,158.395 739.194,158.361 762.737,158.334 786.279,158.314 809.822,158.302 833.365,158.295 856.907,158.293 880.000,158.292" fill="none" stroke="#ea580c" stroke-width="1.7"/>
<polyline points="80.000,159.953 103.543,159.955 127.085,159.968 150.628,160.002 174.171,160.065 197.713,160.162 221.256,160.297 244.799,160.472 249.060,160.509 268.341,160.689 291.884,160.947 315.426,161.244 338.969,161.578 362.512,161.946 386.054,162.342 409.597,162.762 433.140,163.200 456.682,163.651 480.000,164.103 480.225,164.108 503.768,164.565 527.310,165.015 550.853,165.453 574.396,165.873 597.938,166.269 621.481,166.635 645.024,166.969 668.566,167.265 692.109,167.522 710.940,167.698 715.651,167.738 739.194,167.913 762.737,168.047 786.279,168.143 809.822,168.205 833.365,168.239 856.907,168.252 880.000,168.254" fill="none" stroke="#0891b2" stroke-width="1.7"/>
<path d="M80.000,60 v175" stroke="#94a3b8" stroke-dasharray="3 4"/>
<path d="M880.000,60 v175" stroke="#94a3b8" stroke-dasharray="3 4"/>
<text x="80.000" y="255" font-size="12">0s</text>
<text x="280.000" y="255" font-size="12">0.85s</text>
<text x="480.000" y="255" font-size="12">1.7s</text>
<text x="680.000" y="255" font-size="12">2.55s</text>
<text x="880.000" y="255" font-size="12">3.4s</text>
<text x="80" y="280" font-family="sans-serif" font-size="15">Velocity (rad/s)</text>
<path d="M80,465.000 H880" stroke="#e2e8f0"/><text x="8" y="469.000" font-size="12">-0.499</text>
<path d="M80,421.250 H880" stroke="#e2e8f0"/><text x="8" y="425.250" font-size="12">-0.208</text>
<path d="M80,377.500 H880" stroke="#e2e8f0"/><text x="8" y="381.500" font-size="12">0.0828</text>
<path d="M80,333.750 H880" stroke="#e2e8f0"/><text x="8" y="337.750" font-size="12">0.374</text>
<path d="M80,290.000 H880" stroke="#e2e8f0"/><text x="8" y="294.000" font-size="12">0.664</text>
<polyline points="80.000,389.953 103.543,388.869 127.085,385.877 150.628,381.347 174.171,375.625 197.713,369.035 221.256,361.874 244.799,354.417 249.060,353.056 268.341,346.916 291.884,339.597 315.426,332.663 338.969,326.292 362.512,320.642 386.054,315.842 409.597,311.999 433.140,309.199 456.682,307.499 480.000,306.935 480.225,306.936 503.768,307.521 527.310,309.242 550.853,312.063 574.396,315.925 597.938,320.742 621.481,326.408 645.024,332.790 668.566,339.734 692.109,347.058 710.940,353.056 715.651,354.561 739.194,362.015 762.737,369.167 786.279,375.744 809.822,381.446 833.365,385.950 856.907,388.909 880.000,389.953" fill="none" stroke="#2563eb" stroke-width="1.7"/>
<polyline points="80.000,389.953 103.543,390.711 127.085,392.805 150.628,395.976 174.171,399.982 197.713,404.595 221.256,409.608 244.799,414.827 249.060,415.780 268.341,420.078 291.884,425.202 315.426,430.056 338.969,434.515 362.512,438.470 386.054,441.830 409.597,444.520 433.140,446.480 456.682,447.670 480.000,448.065 480.225,448.064 503.768,447.655 527.310,446.450 550.853,444.475 574.396,441.772 597.938,438.400 621.481,434.434 645.024,429.966 668.566,425.106 692.109,419.978 710.940,415.780 715.651,414.727 739.194,409.509 762.737,404.502 786.279,399.899 809.822,395.907 833.365,392.755 856.907,390.683 880.000,389.953" fill="none" stroke="#dc2626" stroke-width="1.7"/>
<polyline points="80.000,389.953 103.543,389.627 127.085,388.730 150.628,387.371 174.171,385.654 197.713,383.677 221.256,381.529 244.799,379.292 249.060,378.884 268.341,377.042 291.884,374.846 315.426,372.766 338.969,370.855 362.512,369.159 386.054,367.719 409.597,366.567 433.140,365.726 456.682,365.216 480.000,365.047 480.225,365.047 503.768,365.223 527.310,365.739 550.853,366.586 574.396,367.744 597.938,369.189 621.481,370.889 645.024,372.804 668.566,374.887 692.109,377.084 710.940,378.884 715.651,379.335 739.194,381.571 762.737,383.717 786.279,385.690 809.822,387.401 833.365,388.752 856.907,389.639 880.000,389.953" fill="none" stroke="#16a34a" stroke-width="1.7"/>
<polyline points="80.000,389.953 103.543,389.953 127.085,389.953 150.628,389.953 174.171,389.953 197.713,389.953 221.256,389.953 244.799,389.953 249.060,389.953 268.341,389.953 291.884,389.953 315.426,389.953 338.969,389.953 362.512,389.953 386.054,389.953 409.597,389.953 433.140,389.953 456.682,389.953 480.000,389.953 480.225,389.953 503.768,389.953 527.310,389.953 550.853,389.953 574.396,389.953 597.938,389.953 621.481,389.953 645.024,389.953 668.566,389.953 692.109,389.953 710.940,389.953 715.651,389.953 739.194,389.953 762.737,389.953 786.279,389.953 809.822,389.953 833.365,389.953 856.907,389.953 880.000,389.953" fill="none" stroke="#9333ea" stroke-width="1.7"/>
<polyline points="80.000,389.953 103.543,389.931 127.085,389.871 150.628,389.780 174.171,389.666 197.713,389.534 221.256,389.391 244.799,389.242 249.060,389.215 268.341,389.092 291.884,388.945 315.426,388.807 338.969,388.679 362.512,388.566 386.054,388.470 409.597,388.393 433.140,388.337 456.682,388.303 480.000,388.292 480.225,388.292 503.768,388.304 527.310,388.338 550.853,388.395 574.396,388.472 597.938,388.568 621.481,388.682 645.024,388.809 668.566,388.948 692.109,389.095 710.940,389.215 715.651,389.245 739.194,389.394 762.737,389.537 786.279,389.668 809.822,389.782 833.365,389.873 856.907,389.932 880.000,389.953" fill="none" stroke="#ea580c" stroke-width="1.7"/>
<polyline points="80.000,389.953 103.543,390.061 127.085,390.360 150.628,390.813 174.171,391.385 197.713,392.044 221.256,392.760 244.799,393.506 249.060,393.642 268.341,394.256 291.884,394.988 315.426,395.682 338.969,396.319 362.512,396.884 386.054,397.364 409.597,397.748 433.140,398.028 456.682,398.198 480.000,398.254 480.225,398.254 503.768,398.196 527.310,398.024 550.853,397.741 574.396,397.355 597.938,396.874 621.481,396.307 645.024,395.669 668.566,394.974 692.109,394.242 710.940,393.642 715.651,393.492 739.194,392.746 762.737,392.031 786.279,391.373 809.822,390.803 833.365,390.353 856.907,390.057 880.000,389.953" fill="none" stroke="#0891b2" stroke-width="1.7"/>
<path d="M80.000,290 v175" stroke="#94a3b8" stroke-dasharray="3 4"/>
<path d="M880.000,290 v175" stroke="#94a3b8" stroke-dasharray="3 4"/>
<text x="80.000" y="485" font-size="12">0s</text>
<text x="280.000" y="485" font-size="12">0.85s</text>
<text x="480.000" y="485" font-size="12">1.7s</text>
<text x="680.000" y="485" font-size="12">2.55s</text>
<text x="880.000" y="485" font-size="12">3.4s</text>
<text x="80" y="510" font-family="sans-serif" font-size="15">Acceleration (rad/s^2)</text>
<path d="M80,695.000 H880" stroke="#e2e8f0"/><text x="8" y="699.000" font-size="12">-0.62</text>
<path d="M80,651.250 H880" stroke="#e2e8f0"/><text x="8" y="655.250" font-size="12">-0.31</text>
<path d="M80,607.500 H880" stroke="#e2e8f0"/><text x="8" y="611.500" font-size="12">0</text>
<path d="M80,563.750 H880" stroke="#e2e8f0"/><text x="8" y="567.750" font-size="12">0.31</text>
<path d="M80,520.000 H880" stroke="#e2e8f0"/><text x="8" y="524.000" font-size="12">0.62</text>
<polyline points="80.000,607.500 103.543,587.787 127.085,571.661 150.628,558.896 174.171,549.269 197.713,542.556 221.256,538.531 244.799,536.972 249.060,536.935 268.341,537.653 291.884,540.350 315.426,544.839 338.969,550.897 362.512,558.297 386.054,566.817 409.597,576.232 433.140,586.317 456.682,596.849 480.000,607.500 480.225,607.603 503.768,618.355 527.310,628.880 550.853,638.955 574.396,648.355 597.938,656.855 621.481,664.232 645.024,670.262 668.566,674.719 692.109,677.380 710.940,678.065 715.651,678.020 739.194,676.416 762.737,672.342 786.279,665.575 809.822,655.890 833.365,643.063 856.907,626.870 880.000,607.500" fill="none" stroke="#2563eb" stroke-width="1.7"/>
<polyline points="80.000,607.500 103.543,621.299 127.085,632.587 150.628,641.523 174.171,648.262 197.713,652.961 221.256,655.778 244.799,656.870 249.060,656.895 268.341,656.393 291.884,654.505 315.426,651.362 338.969,647.122 362.512,641.942 386.054,635.978 409.597,629.388 433.140,622.328 456.682,614.956 480.000,607.500 480.225,607.428 503.768,599.902 527.310,592.534 550.853,585.481 574.396,578.902 597.938,572.951 621.481,567.787 645.024,563.567 668.566,560.447 692.109,558.584 710.940,558.105 715.651,558.136 739.194,559.259 762.737,562.111 786.279,566.848 809.822,573.627 833.365,582.606 856.907,593.941 880.000,607.500" fill="none" stroke="#dc2626" stroke-width="1.7"/>
<polyline points="80.000,607.500 103.543,601.586 127.085,596.748 150.628,592.919 174.171,590.031 197.713,588.017 221.256,586.809 244.799,586.342 249.060,586.331 268.341,586.546 291.884,587.355 315.426,588.702 338.969,590.519 362.512,592.739 386.054,595.295 409.597,598.120 433.140,601.145 456.682,604.305 480.000,607.500 480.225,607.531 503.768,610.756 527.310,613.914 550.853,616.937 574.396,619.756 597.938,622.307 621.481,624.520 645.024,626.329 668.566,627.666 692.109,628.464 710.940,628.669 715.651,628.656 739.194,628.175 762.737,626.953 786.279,624.922 809.822,622.017 833.365,618.169 856.907,613.311 880.000,607.500" fill="none" stroke="#16a34a" stroke-width="1.7"/>
<polyline points="80.000,607.500 103.543,607.500 127.085,607.500 150.628,607.500 174.171,607.500 197.713,607.500 221.256,607.500 244.799,607.500 249.060,607.500 268.341,607.500 291.884,607.500 315.426,607.500 338.969,607.500 362.512,607.500 386.054,607.500 409.597,607.500 433.140,607.500 456.682,607.500 480.000,607.500 480.225,607.500 503.768,607.500 527.310,607.500 550.853,607.500 574.396,607.500 597.938,607.500 621.481,607.500 645.024,607.500 668.566,607.500 692.109,607.500 710.940,607.500 715.651,607.500 739.194,607.500 762.737,607.500 786.279,607.500 809.822,607.500 833.365,607.500 856.907,607.500 880.000,607.500" fill="none" stroke="#9333ea" stroke-width="1.7"/>
<polyline points="80.000,607.500 103.543,607.106 127.085,606.783 150.628,606.528 174.171,606.335 197.713,606.201 221.256,606.121 244.799,606.089 249.060,606.089 268.341,606.103 291.884,606.157 315.426,606.247 338.969,606.368 362.512,606.516 386.054,606.686 409.597,606.875 433.140,607.076 456.682,607.287 480.000,607.500 480.225,607.502 503.768,607.717 527.310,607.928 550.853,608.129 574.396,608.317 597.938,608.487 621.481,608.635 645.024,608.755 668.566,608.844 692.109,608.898 710.940,608.911 715.651,608.910 739.194,608.878 762.737,608.797 786.279,608.661 809.822,608.468 833.365,608.211 856.907,607.887 880.000,607.500" fill="none" stroke="#ea580c" stroke-width="1.7"/>
<polyline points="80.000,607.500 103.543,609.471 127.085,611.084 150.628,612.360 174.171,613.323 197.713,613.994 221.256,614.397 244.799,614.553 249.060,614.556 268.341,614.485 291.884,614.215 315.426,613.766 338.969,613.160 362.512,612.420 386.054,611.568 409.597,610.627 433.140,609.618 456.682,608.565 480.000,607.500 480.225,607.490 503.768,606.415 527.310,605.362 550.853,604.354 574.396,603.415 597.938,602.564 621.481,601.827 645.024,601.224 668.566,600.778 692.109,600.512 710.940,600.444 715.651,600.448 739.194,600.608 762.737,601.016 786.279,601.693 809.822,602.661 833.365,603.944 856.907,605.563 880.000,607.500" fill="none" stroke="#0891b2" stroke-width="1.7"/>
<path d="M80.000,520 v175" stroke="#94a3b8" stroke-dasharray="3 4"/>
<path d="M880.000,520 v175" stroke="#94a3b8" stroke-dasharray="3 4"/>
<text x="80.000" y="715" font-size="12">0s</text>
<text x="280.000" y="715" font-size="12">0.85s</text>
<text x="480.000" y="715" font-size="12">1.7s</text>
<text x="680.000" y="715" font-size="12">2.55s</text>
<text x="880.000" y="715" font-size="12">3.4s</text>
<text x="80" y="753" fill="#2563eb" font-family="sans-serif">J1</text>
<text x="180" y="753" fill="#dc2626" font-family="sans-serif">J2</text>
<text x="280" y="753" fill="#16a34a" font-family="sans-serif">J3</text>
<text x="380" y="753" fill="#9333ea" font-family="sans-serif">J4</text>
<text x="480" y="753" fill="#ea580c" font-family="sans-serif">J5</text>
<text x="580" y="753" fill="#0891b2" font-family="sans-serif">J6</text>
<text x="80" y="777" font-family="sans-serif" font-size="12">Acceleration: right at switches; left at final endpoint. No TCP/collision acceptance.</text></svg>